<?xml version="1.0" encoding="utf-8"?>
<!-- Generator: Adobe Illustrator 13.0.0, SVG Export Plug-In . SVG Version: 6.00 Build 14948)  -->
<!DOCTYPE svg PUBLIC "-//W3C//DTD SVG 1.1//EN" "http://www.w3.org/Graphics/SVG/1.1/DTD/svg11.dtd">
<svg version="1.1" id="Layer_1" xmlns="http://www.w3.org/2000/svg" xmlns:xlink="http://www.w3.org/1999/xlink" x="0px" y="0px"
	 width="88.139px" height="41.823px" viewBox="0 0 88.139 41.823" enable-background="new 0 0 88.139 41.823" xml:space="preserve">
<g>
	<path fill-rule="evenodd" clip-rule="evenodd" d="M87.68,37.013l-8.964-15.626l8.34-14.615l0.459-0.805H76.563l-0.156,0.277
		l-3.765,6.87L68.86,6.246l-0.154-0.28h-9.132C58.156,1.649,54.475,0,46.99,0c-9.026,0-12.578,1.804-13.167,8.693
		c-0.74-2.476-2.287-3.267-5.404-3.267c-2.787,0-4.799,1.082-6.903,4.241c-0.494-2.974-2.634-4.241-5.851-4.241
		c-2.538,0-4.488,0.958-6.469,3.868L9.043,6.141H0v31.673h9.167V16.017c0-2.6,0.305-3.714,1.853-3.711
		c1.361,0,1.702,1.175,1.702,3.711v21.797h9.229V15.768c-0.003-2.452,0.292-3.462,1.826-3.462c1.353-0.003,1.666,1.018,1.666,3.496
		v22.012h8.176c1.297,2.85,3.668,4.01,7.271,4.01c3.33,0,5.834-1.666,8.148-5.387l0.505,4.469h10.755v-3.082h7.752l0.153-0.277
		l4.422-7.916l4.41,7.916l0.154,0.277h10.949L87.68,37.013L87.68,37.013z M49.003,29.64c0,3.49-0.427,5.09-2.646,5.09
		c-2.218,0-2.693-1.6-2.693-5.09v-2.455c0-3.645,1.299-4.814,5.34-5.209V29.64L49.003,29.64z M49.038,15.113
		c-7.493,0.459-11.917,1.362-14.366,4.109v-4.381c0-0.896-0.024-1.712-0.078-2.375h9.1v-0.728c0-3.328,0.604-4.771,2.902-4.771
		c2.218,0,2.442,1.92,2.442,5.405V15.113L49.038,15.113z M60.298,32.229c0-7.26,0.217-14.59-0.024-21.843l6.253,10.979
		L60.298,32.229L60.298,32.229z"/>
</g>
</svg>
